<?xml version="1.0" encoding="UTF-8"?>
<svg id="Layer_2" data-name="Layer 2" xmlns="http://www.w3.org/2000/svg" viewBox="0 0 180.58 180.48">
  <defs>
    <style>
      .cls-1 {
        fill: #898988;
      }

      .cls-2 {
        fill: #1f201f;
      }

      .cls-3 {
        fill: #959797;
      }

      .cls-4 {
        fill: #131212;
      }

      .cls-5 {
        fill: #a3a4a4;
      }

      .cls-6 {
        fill: #e6e7e7;
      }

      .cls-7 {
        fill: #474747;
      }

      .cls-8 {
        fill: #2f3030;
      }

      .cls-9 {
        fill: #181616;
      }

      .cls-10 {
        fill: #272828;
      }

      .cls-11 {
        fill: #7c7d7c;
      }
    </style>
  </defs>
  <g id="Layer_1-2" data-name="Layer 1">
    <g>
      <path class="cls-4" d="M180.58,90.24c0,49.84-40.42,90.24-90.29,90.24S0,140.07,0,90.24,40.42,0,90.29,0s90.29,40.4,90.29,90.24ZM178.04,90.3c0-48.44-39.29-87.71-87.76-87.71S2.53,41.86,2.53,90.3s39.29,87.71,87.76,87.71,87.76-39.27,87.76-87.71Z"/>
      <path class="cls-2" d="M178.04,90.3c0,48.44-39.29,87.71-87.76,87.71S2.53,138.74,2.53,90.3,41.82,2.59,90.28,2.59s87.76,39.27,87.76,87.71ZM171.82,90.28c0-45.01-36.51-81.5-81.55-81.5S8.73,45.26,8.73,90.28s36.51,81.5,81.55,81.5,81.55-36.49,81.55-81.5Z"/>
      <path class="cls-8" d="M171.82,90.28c0,45.01-36.51,81.5-81.55,81.5S8.73,135.29,8.73,90.28,45.24,8.78,90.28,8.78s81.55,36.49,81.55,81.5ZM161.27,90.33c0-39.17-31.77-70.92-70.96-70.92S19.34,51.16,19.34,90.33s31.77,70.92,70.96,70.92,70.96-31.75,70.96-70.92Z"/>
      <path class="cls-4" d="M161.27,90.33c0,39.17-31.77,70.92-70.96,70.92S19.34,129.5,19.34,90.33,51.11,19.41,90.3,19.41s70.96,31.75,70.96,70.92ZM159.25,90.34c0-38.07-30.88-68.93-68.97-68.93S21.32,52.27,21.32,90.34s30.88,68.93,68.97,68.93,68.97-30.86,68.97-68.93Z"/>
      <path class="cls-5" d="M159.25,90.34c0,38.07-30.88,68.93-68.97,68.93S21.32,128.4,21.32,90.34,52.2,21.41,90.29,21.41s68.97,30.86,68.97,68.93ZM154.6,90.33c0-35.5-28.79-64.27-64.31-64.27S25.98,54.83,25.98,90.33s28.79,64.27,64.31,64.27,64.31-28.78,64.31-64.27Z"/>
      <path class="cls-4" d="M154.6,90.33c0,35.5-28.79,64.27-64.31,64.27S25.98,125.82,25.98,90.33,54.77,26.05,90.29,26.05s64.31,28.78,64.31,64.27ZM83.33,28.17c-.48-.32-1.69-.4-1.55.74.69,5.37,5.16,11.89,4.84,17.68l-3.77,30.72,2.05-1.42,3.31-27.69c.99-2.35-4.02-19.44-4.89-20.02ZM95.15,28.12h-9.63c.08,1.13.04,2.61,1.33,2.73.94.08,7.81-.76,8.06-1.09.38-.53.23-1.06.24-1.63ZM98.89,28.67c-.06-.06-1.53-.6-1.59-.55-.7.54-4.7,14.77-5.38,16.87l3.86,30.88,1.78,1.43c.31-1.93-.11-4.13-.35-6.07-.89-7.4-3.72-20-3.16-26.83.24-2.9,5.37-15.11,4.83-15.73ZM48.27,47.02c5.53-5.23,15.15-11.32,22.39-13.71,2.73-.9,6.15-1.15,8.69-2.01.7-.24,1.45-.28,1.36-1.3-.43-2.09-8.95.82-10.45,1.31-12.9,4.24-27.5,15.45-34.04,27.45-.74,1.36-2.93,6.02.64,3.85.38-.23,3.62-6.38,4.59-7.71,1.65-2.26,4.83-5.98,6.83-7.88ZM99.96,31.33c16.5,1.77,30.54,11.8,40.01,24.96.85,1.18,4.03,6.99,4.65,7.12,2.23.47.61-3.03.17-3.91-6.35-12.53-21.61-23.94-34.79-28.31-2.5-.83-10.41-3.98-10.05.15ZM81.24,32.93c-13,2.17-26.07,9-34.75,18.99-1.49,1.71-8.92,11.87-7.96,13.53.28.48,8.23,5.73,9.16,6.08,3.62,1.37,8.58,1.36,12.36,2.6,3.63-6.32,9.31-11.6,16.01-14.57,1.45-.64,6.13-1.73,6.79-2.3,1.09-.94,1.81-11.51,1.6-13.38-.4-3.56-2.87-7.3-3.22-10.96ZM99.46,32.95c-.56,3.59-3.63,8.61-3.81,12.03-.08,1.64.83,8.79,1.21,10.56.55,2.56,5.39,2.98,7.74,4.03,6.83,3.04,12.04,8.25,16.03,14.47,3.97-1.3,9.33-1.17,13.03-2.88,1.05-.48,7.98-5.48,8.31-6.17.64-1.31-4.29-8.59-5.42-10.1-8.78-11.67-22.75-19.51-37.1-21.94ZM93.01,33.47h-5.35c.65,9.03,4.45,8.83,5.35,0ZM91.4,56.46c.28-.27-.47-6.13-.67-7.08-.11-.52-.19-1.6-.92-1.47l-.54,8.55h2.13ZM91.93,58.6c-.11-.11-2.98-.09-3.15.05-.47.39-1.04,7.7-1.12,9.03,1.94-.24,3.41-.57,5.34,0-.41-1.29-.75-8.75-1.07-9.08ZM61.99,74.62c2.38-.06,7.18,2.11,9.24,1.52.54-.15,4.31-3.8,5.56-4.63,1.15-.76,4.41-1.84,4.99-2.49.45-.5,1.37-9.47,1.06-9.9-8.63,2.69-16.3,7.5-20.85,15.5ZM118.14,74.62c-3.73-7.72-11.95-13.53-20.32-14.96-.35.35.34,8.63,1.06,9.37.9.91,5.64,2.87,7.46,4.31.98.78,1.9,2.61,2.54,2.82,1.94.67,7-1.35,9.27-1.53ZM79.1,79.98l-32.08-6.7-13.91-9.34.34,2.19c4.81,2.44,8.67,7.35,13.8,9.07,9.03,3.01,20.36,3.38,29.61,6.29.79.48,2.48-1.18,2.24-1.5ZM147.55,66.06c.35-.5-.3-2.12-.79-2.11-.83.03-10.36,8.37-13.52,9.46-8.42,2.92-20.36,3.59-29.37,5.93-2.76.72-3.2,1.28-.06,2.14,9.18-2.85,20.19-3.22,29.19-6.16,4.62-1.51,8.9-5.73,12.78-8.63.52-.39,1.71-.55,1.77-.63ZM29.36,76.76c.21.2,1.96.09,2.42-.52.21-.29,2.27-6.47,2.32-6.82.22-1.56-.75-1.5-1.8-2.27-.61,1.3-3.63,8.94-2.93,9.61ZM148.63,67.14c-.41-.38-1.64.57-1.88,1.08-.54,1.15,1.61,10,4.55,8.54-.61-1.4-2.1-9.09-2.68-9.62ZM92.93,69.89c-.41-.26-4.81-.19-5.31.16-.87.61-.31,4.38-1.03,5.64,2.53-.76,4.94-.77,7.48,0-.24-1.01-.65-5.5-1.14-5.81ZM41.6,76.18c2.16-1.36-3.73-4.31-4.48-5.28l-1.87,5.33c1.3-.28,5.61.42,6.35-.05ZM145.42,76.23l-1.87-5.33c-1.29,1.48-4.73,2.49-5.09,4.53-.19,1.08.13.71.8.81,1.87.27,4.22-.19,6.16,0ZM80.71,78.37l.53-6.95c-.27-.36-6.51,4.05-6.94,5.09s.65.76,1.18.93c1.67.55,3.45,1.01,5.24.93ZM106.91,77.3c1.2-1.04-7.4-6.55-8.02-5.87l1.07,6.95,6.95-1.07ZM104.01,90.92c0-7.6-6.16-13.75-13.76-13.75s-13.76,6.16-13.76,13.75,6.16,13.75,13.76,13.75,13.76-6.16,13.76-13.75ZM52.36,78.37c-.76-.12-1.96-1.05-3.21-.53-.18.69.87.7,1.6,1.06.87.43,6.14,2.88,6.41,2.67.1-.07.82-1.91.02-2.42s-3.66-.61-4.83-.79ZM131.52,77.84c-2.4.57-10.04-.19-8.02,3.74l8.02-3.74ZM28.82,79.97s-1.05.36-.27.54h16.31c4.21,1.02,9.66,3.96,13.74,5.78,5.36,2.38,10.72,4.92,15.94,7.58.67-.72.27-2.23-.59-2.61l-28.54-12.64-16.31-.27c-.61.16-.21,1.14-.29,1.64ZM151.84,78.37h-16.85l-29.35,13.31-.33,2.19,30.22-13.9h16.31v-1.6ZM67.33,85.86c-.35-1.18,1.78-3.79.55-4.55-.65-.4-7.91-1.62-8.49-1.25-.25.16-.81,2.23-.58,2.55.27.37,8.17,3.57,8.52,3.25ZM121.3,80.04c-.94-.83-7.34,1.57-9.03,1.01l1.08,5.34c1.12-1,8.14-3.22,8.54-3.77.08-.11-.49-2.49-.58-2.58ZM32.59,82.14c-2.31,14.43,1.69,30.06,10.23,41.84,1.07,1.48,4.71,6.02,6.04,6.81.81.48.93.61,1.91.29.63-.21,7.06-5.04,7.69-5.73.9-.99,6.21-10.07,6.18-10.91s-4.62-6.54-5.52-8.35c-2.97-5.97-3.89-12.2-3.62-18.84-.28-.82-11.07-5.36-12.64-5.55-3.19-.39-6.91.93-10.26.43ZM148.09,82.12c-3.36.55-7.08-.8-10.28-.4-1.66.2-12.56,4.86-12.73,5.57.95,10.25-2.77,19.32-9.06,27.16-.02.87,4.49,9.12,5.34,10.17,2.2,2.75,6.73,4.69,9.37,7.12,13.32-12.53,20.16-31.39,17.37-49.61ZM30.43,82.11c-2.62-.8-2.55,1.74-2.69,3.99-1.01,15.59,4.84,33.53,15.26,45.2,1.45,1.63,3.26,4.37,5.08,1.86-13.44-13.04-20.48-32.35-17.64-51.05ZM76.43,83.19c-3.26-.36-5.92-2.92-6.82,1.46-.83,4.06,1.88,3.01,4.67,4.94l2.15-6.41ZM111.73,87.45c-.69-5.38-1.63-6.1-6.94-4.79l1.06,6.94,5.88-2.15ZM152.31,82.18c-.34-.27-1.49.03-2.07-.07,2.09,14.38-1.8,30.6-10.26,42.41-1.12,1.57-7.28,7.58-7.39,8.12-.31,1.39,1.73,1.66,2.98.83.83-.55,4.63-5.62,5.48-6.82,8.27-11.65,12.86-26.71,11.89-41.08-.04-.6-.43-3.23-.62-3.39ZM57.71,87.99v8.29c0,1.49,2.66,8.16,3.53,9.83.46.88,3.73,5.83,4.23,5.93.81.18,5.08-6.9,5.05-7.75-.02-.63-2.07-3.68-2.54-4.93-.71-1.92-1.18-6.5-2.02-7.61s-6.71-2.79-8.27-3.76ZM122.96,87.99c-1.51.91-7.43,2.77-8.28,3.75-.61.71-1.33,5.81-2.01,7.61-.47,1.23-2.5,4.33-2.52,4.93-.02.65,4.05,8.27,4.52,8.28,1.87-1.86,3.53-4.13,4.75-6.47.89-1.71,3.54-8.28,3.54-9.82v-8.29ZM75.36,96.02l-6.95-3.21c-.25,3.29,1.75,6.08,2.68,9.09,1.23.31.88-.24,1.22-.67,1.21-1.54,1.77-3.66,3.05-5.2ZM105.31,96.02c3.88,10.16,5.9,3.35,6.95-3.22l-6.95,3.22ZM76.95,98.15c-1.45-.32-.91.45-1.32,1.06-5.32,7.99-9.54,19.45-15.02,26.7-2.88,3.81-9.68,6.15-12.55,9.38-.82.92.72,1.85.82,1.85.86,0,12.27-9.39,13.32-10.71,5.66-7.1,9.31-18.3,14.9-25.78l-.16-2.5ZM104.77,98.15c-.98-.93-1.97,1.92-1.33,2.63,5.23,7.48,8.79,17.17,14.06,24.49,3.86,5.36,9.46,7.56,14.3,11.88.32-.43,1.52-1.01,1.08-1.58-1.5-2.01-8.76-5.72-11.23-8.03-4.65-4.33-11.69-19.45-15.35-25.82-.45-.79-1.38-3.43-1.52-3.56ZM96.75,105.11c-.49.65,3.65,4.65,4,4.68.38.03,3.88-2.51,3.99-2.89.24-.8-2.45-5-2.91-4.99-1.41,1.37-3.11,2.83-5.08,3.21ZM83.91,105.1c-2.79-.06-3.74-4.48-6.36-1.81-2.09,2.13-1.96,3.64.51,5.25,2.75,1.78,3.94-1.58,5.85-3.43ZM61.44,145.73c.64-.48,3.44-12.54,4.92-15.14,1.3-2.3,4.69-5.68,6.59-7.85,4.62-5.3,9.77-10.24,14.46-15.49.27-3.95-4.27,1.5-5.37,2.66-4.4,4.65-16.04,16.78-18.17,21.94-1.64,3.98-2.4,8.98-4.04,13.03,0,.26,1.54.91,1.61.85ZM120.82,145.19c.58-.65-4.71-14.63-5.65-16.53l-20.28-22.54c-.76-.81-1.48,0-2.41.06l21.64,24.07,4.83,14.95c.19.67,1.81.06,1.88-.01ZM95.15,112.04l-4.62-4.77-5.01,4.51c3.13,1.25,6.4.79,9.62.26ZM74.29,108.31c-.04,2.43-4.77,6.56-3.5,8.56,2.03,3.19,6.02-4.68,7.77-5.62l-4.26-2.94ZM106.37,108.84c-.41-.3-3.01,1.58-3.6,2-.29.2-1.03.01-.66.93.15.36,4.43,4.85,5.29,5.83.75.86,2.09.03,2.48-.74.9-1.75-3.5-5.73-3.51-8.01ZM102.63,121.13c.73-.98-5.53-7.38-6.65-7.43-.76-.04-2.03.52-3.22.52-1.77,0-8.28-.74-9.03-.49-.41.14-5.09,5.6-5.71,6.59,7.33,4.29,16.81,3.42,24.61.81ZM65.2,125.95c.7-1.26,5.71-5.52,5.86-6.17.23-1.02-1.35-1.3-1.86-1.84l-4,8.01ZM113.87,124.34c.47.5.77,1.47,1.6,1.6.42-1.11-.88-1.26-1.06-1.6-.66-1.26-1.83-5.9-3.47-5.9-3.49,0,2.05,4.95,2.93,5.9ZM115.97,142.47c.33-.46-2.7-9.9-3.25-10.83-1.81-3.1-6.11-6.31-8.28-9.36-9,4.04-19.08,3.52-28.16,0-6.08,5.65-10.68,11.73-11.55,20.18,16.15,7.98,35.09,8.08,51.24.02ZM59.84,138.24c3.03-7.78,1.34-8.81-4.8-3.47l4.8,3.47ZM120.29,137.71c.5.51,4.25-2.2,4.8-2.94-5.38-5.11-6.86-4.48-4.8,2.94ZM58.77,143.58c1.64-2.07-5.36-6.74-6.25-6.87-1.18-.18-2.22,1.21-1,2.63.68.79,6.65,4.87,7.25,4.25ZM121.89,143.58c.49.51,6.2-3.4,6.91-4.05.46-.42,1.27-.77,1.11-1.55-.55-2.68-9.85,2.77-8.02,5.6ZM116.99,146.71c.22-.36.31-2.23-.17-2.58-12.02,6.39-26.52,7.91-39.77,4.99-4.64-1.02-8.93-3.15-13.45-4.46-.53,2.32.96,2.58,2.79,3.36,13.03,5.52,27.98,6.04,41.48,2.13,1.2-.35,8.88-3.02,9.13-3.44Z"/>
      <path class="cls-10" d="M104.01,90.92c0,7.6-6.16,13.75-13.76,13.75s-13.76-6.16-13.76-13.75,6.16-13.75,13.76-13.75,13.76,6.16,13.76,13.75ZM100.37,90.84c0-5.55-4.5-10.05-10.06-10.05s-10.06,4.5-10.06,10.05,4.5,10.05,10.06,10.05,10.06-4.5,10.06-10.05Z"/>
      <path class="cls-11" d="M122.96,87.99v8.29c0,1.54-2.65,8.12-3.54,9.82-1.22,2.34-2.87,4.61-4.75,6.47-.47,0-4.55-7.63-4.52-8.28.02-.6,2.06-3.7,2.52-4.93.68-1.8,1.4-6.9,2.01-7.61.84-.99,6.77-2.84,8.28-3.75Z"/>
      <path class="cls-11" d="M57.71,87.99c1.55.97,7.42,2.64,8.27,3.76s1.3,5.69,2.02,7.61c.46,1.25,2.52,4.3,2.54,4.93.03.86-4.24,7.93-5.05,7.75-.5-.11-3.77-5.06-4.23-5.93-.88-1.67-3.53-8.34-3.53-9.83v-8.29Z"/>
      <path class="cls-11" d="M61.99,74.62c4.55-7.99,12.22-12.81,20.85-15.5.31.42-.61,9.39-1.06,9.9-.59.66-3.85,1.73-4.99,2.49-1.25.83-5.02,4.48-5.56,4.63-2.06.59-6.86-1.58-9.24-1.52Z"/>
      <path class="cls-11" d="M118.14,74.62c-2.27.18-7.32,2.2-9.27,1.53-.64-.22-1.56-2.05-2.54-2.82-1.82-1.44-6.56-3.4-7.46-4.31-.72-.73-1.41-9.02-1.06-9.37,8.37,1.43,16.59,7.25,20.32,14.96Z"/>
      <path class="cls-11" d="M102.63,121.13c-7.79,2.61-17.28,3.49-24.61-.81.62-.99,5.3-6.45,5.71-6.59.74-.25,7.25.49,9.03.49,1.19,0,2.47-.56,3.22-.52,1.12.06,7.37,6.45,6.65,7.43Z"/>
      <path class="cls-10" d="M48.27,47.02c-2,1.89-5.18,5.62-6.83,7.88-.97,1.33-4.2,7.48-4.59,7.71-3.57,2.17-1.38-2.48-.64-3.85,6.54-12,21.14-23.21,34.04-27.45,1.49-.49,10.02-3.4,10.45-1.31.09,1.02-.66,1.06-1.36,1.3-2.54.86-5.96,1.1-8.69,2.01-7.23,2.39-16.86,8.48-22.39,13.71Z"/>
      <path class="cls-10" d="M99.96,31.33c-.37-4.13,7.54-.98,10.05-.15,13.17,4.37,28.44,15.78,34.79,28.31.45.88,2.07,4.38-.17,3.91-.62-.13-3.8-5.93-4.65-7.12-9.47-13.16-23.52-23.19-40.01-24.96Z"/>
      <path class="cls-10" d="M152.31,82.18c.19.16.58,2.79.62,3.39.98,14.37-3.62,29.43-11.89,41.08-.85,1.2-4.65,6.26-5.48,6.82-1.25.83-3.28.57-2.98-.83.12-.54,6.27-6.55,7.39-8.12,8.45-11.81,12.34-28.03,10.26-42.41.58.1,1.74-.2,2.07.07Z"/>
      <path class="cls-10" d="M30.43,82.11c-2.84,18.7,4.21,38.01,17.64,51.05-1.82,2.5-3.62-.24-5.08-1.86-10.42-11.66-16.26-29.61-15.26-45.2.14-2.25.08-4.79,2.69-3.99Z"/>
      <path class="cls-10" d="M116.99,146.71c-.25.42-7.93,3.09-9.13,3.44-13.5,3.91-28.45,3.4-41.48-2.13-1.83-.77-3.32-1.04-2.79-3.36,4.53,1.31,8.82,3.44,13.45,4.46,13.25,2.91,27.74,1.4,39.77-4.99.48.35.39,2.22.17,2.58Z"/>
      <path class="cls-3" d="M98.89,28.67c.54.62-4.59,12.83-4.83,15.73-.56,6.83,2.27,19.43,3.16,26.83.23,1.94.65,4.14.35,6.07l-1.78-1.43-3.86-30.88c.68-2.09,4.68-16.32,5.38-16.87.07-.05,1.54.49,1.59.55Z"/>
      <path class="cls-3" d="M83.33,28.17c.86.58,5.88,17.67,4.89,20.02l-3.31,27.69-2.05,1.42,3.77-30.72c.32-5.78-4.15-12.31-4.84-17.68-.15-1.14,1.06-1.06,1.55-.74Z"/>
      <path class="cls-3" d="M147.55,66.06c-.05.08-1.25.24-1.77.63-3.88,2.9-8.16,7.12-12.78,8.63-9,2.95-20.01,3.31-29.19,6.16-3.14-.85-2.7-1.42.06-2.14,9.01-2.34,20.95-3.01,29.37-5.93,3.15-1.09,12.69-9.43,13.52-9.46.49-.02,1.14,1.61.79,2.11Z"/>
      <path class="cls-3" d="M104.77,98.15c.14.13,1.07,2.78,1.52,3.56,3.66,6.37,10.7,21.49,15.35,25.82,2.47,2.31,9.73,6.02,11.23,8.03.43.58-.76,1.15-1.08,1.58-4.83-4.32-10.43-6.52-14.3-11.88-5.27-7.31-8.82-17-14.06-24.49-.63-.71.35-3.55,1.33-2.63Z"/>
      <path class="cls-3" d="M120.82,145.19c-.06.07-1.69.68-1.88.01l-4.83-14.95-21.64-24.07c.93-.05,1.65-.86,2.41-.06l20.28,22.54c.94,1.91,6.23,15.88,5.65,16.53Z"/>
      <path class="cls-3" d="M76.95,98.15l.16,2.5c-5.59,7.49-9.24,18.68-14.9,25.78-1.06,1.33-12.47,10.7-13.32,10.71-.1,0-1.64-.93-.82-1.85,2.87-3.23,9.67-5.57,12.55-9.38,5.48-7.25,9.71-18.71,15.02-26.7.41-.61-.13-1.38,1.32-1.06Z"/>
      <path class="cls-3" d="M79.1,79.98c.24.31-1.45,1.97-2.24,1.5-9.25-2.9-20.57-3.27-29.61-6.29-5.13-1.71-8.99-6.63-13.8-9.07l-.34-2.19,13.91,9.34,32.08,6.7Z"/>
      <path class="cls-3" d="M28.82,79.97c.09-.49-.32-1.47.29-1.64l16.31.27,28.54,12.64c.86.39,1.27,1.89.59,2.61-5.23-2.67-10.58-5.2-15.94-7.58-4.08-1.81-9.53-4.75-13.74-5.78-5.04-1.23-10.77-.2-16.05-.53Z"/>
      <path class="cls-3" d="M61.44,145.73c-.07.05-1.62-.59-1.61-.85,1.63-4.06,2.4-9.06,4.04-13.03,2.13-5.15,13.76-17.29,18.17-21.94,1.09-1.16,5.63-6.61,5.37-2.66-4.69,5.25-9.84,10.19-14.46,15.49-1.89,2.17-5.28,5.56-6.59,7.85-1.48,2.6-4.28,14.67-4.92,15.14Z"/>
      <polygon class="cls-3" points="151.84 78.37 151.84 79.97 135.53 79.97 105.31 93.87 105.64 91.68 134.99 78.37 151.84 78.37"/>
      <path class="cls-11" d="M91.93,58.6c.32.33.66,7.79,1.07,9.08-1.93-.57-3.41-.24-5.34,0,.08-1.33.65-8.63,1.12-9.03.17-.14,3.04-.16,3.15-.05Z"/>
      <path class="cls-10" d="M111.73,87.45l-5.88,2.15-1.06-6.94c5.31-1.31,6.25-.59,6.94,4.79Z"/>
      <path class="cls-11" d="M121.3,80.04c.1.09.66,2.47.58,2.58-.41.56-7.43,2.77-8.54,3.77l-1.08-5.34c1.7.56,8.09-1.83,9.03-1.01Z"/>
      <path class="cls-11" d="M67.33,85.86c-.35.31-8.25-2.88-8.52-3.25-.23-.32.33-2.39.58-2.55.58-.37,7.84.85,8.49,1.25,1.23.76-.9,3.37-.55,4.55Z"/>
      <path class="cls-10" d="M92.93,69.89c.49.31.9,4.8,1.14,5.81-2.54-.77-4.95-.76-7.48,0,.72-1.26.16-5.03,1.03-5.64.5-.35,4.9-.42,5.31-.16Z"/>
      <path class="cls-11" d="M74.29,108.31l4.26,2.94c-1.75.94-5.74,8.82-7.77,5.62-1.27-2,3.46-6.13,3.5-8.56Z"/>
      <path class="cls-10" d="M96.75,105.11c1.97-.37,3.67-1.83,5.08-3.21.47,0,3.15,4.19,2.91,4.99-.11.38-3.61,2.92-3.99,2.89-.36-.03-4.49-4.02-4-4.68Z"/>
      <path class="cls-10" d="M76.43,83.19l-2.15,6.41c-2.8-1.94-5.5-.89-4.67-4.94.9-4.39,3.56-1.82,6.82-1.46Z"/>
      <path class="cls-11" d="M106.37,108.84c0,2.28,4.41,6.26,3.51,8.01-.39.77-1.73,1.59-2.48.74-.86-.98-5.14-5.46-5.29-5.83-.37-.91.37-.72.66-.93.59-.42,3.19-2.3,3.6-2Z"/>
      <path class="cls-10" d="M83.91,105.1c-1.91,1.85-3.1,5.22-5.85,3.43-2.47-1.6-2.6-3.12-.51-5.25,2.62-2.67,3.57,1.75,6.36,1.81Z"/>
      <path class="cls-10" d="M105.31,96.02l6.95-3.22c-1.05,6.57-3.07,13.38-6.95,3.22Z"/>
      <path class="cls-10" d="M75.36,96.02c-1.28,1.54-1.84,3.65-3.05,5.2-.34.43.01.98-1.22.67-.93-3-2.93-5.8-2.68-9.09l6.95,3.21Z"/>
      <path class="cls-10" d="M106.91,77.3l-6.95,1.07-1.07-6.95c.62-.67,9.21,4.84,8.02,5.87Z"/>
      <path class="cls-10" d="M80.71,78.37c-1.79.08-3.56-.38-5.24-.93-.52-.17-1.6.09-1.18-.93s6.68-5.45,6.94-5.09l-.53,6.95Z"/>
      <path class="cls-10" d="M95.15,112.04c-3.22.53-6.49.99-9.62-.26l5.01-4.51,4.62,4.77Z"/>
      <path class="cls-6" d="M93.01,33.47c-.9,8.83-4.7,9.03-5.35,0h5.35Z"/>
      <path class="cls-10" d="M58.77,143.58c-.59.62-6.56-3.46-7.25-4.25-1.23-1.41-.18-2.8,1-2.63.88.13,7.88,4.81,6.25,6.87Z"/>
      <path class="cls-6" d="M59.84,138.24l-4.8-3.47c6.13-5.34,7.82-4.31,4.8,3.47Z"/>
      <path class="cls-6" d="M145.42,76.23c-1.94-.19-4.29.27-6.16,0-.67-.1-.99.27-.8-.81.36-2.03,3.8-3.05,5.09-4.53l1.87,5.33Z"/>
      <path class="cls-10" d="M148.63,67.14c.57.53,2.06,8.22,2.68,9.62-2.95,1.46-5.1-7.39-4.55-8.54.24-.51,1.47-1.46,1.88-1.08Z"/>
      <path class="cls-10" d="M121.89,143.58c-1.83-2.83,7.46-8.28,8.02-5.6.16.78-.65,1.13-1.11,1.55-.7.65-6.42,4.56-6.91,4.05Z"/>
      <path class="cls-10" d="M29.36,76.76c-.69-.68,2.32-8.31,2.93-9.61,1.05.77,2.02.71,1.8,2.27-.05.36-2.1,6.53-2.32,6.82-.45.61-2.21.72-2.42.52Z"/>
      <path class="cls-6" d="M41.6,76.18c-.74.47-5.06-.23-6.35.05l1.87-5.33c.76.97,6.65,3.92,4.48,5.28Z"/>
      <path class="cls-10" d="M95.15,28.12c-.01.57.15,1.11-.24,1.63-.24.33-7.12,1.17-8.06,1.09-1.3-.11-1.26-1.59-1.33-2.73h9.63Z"/>
      <path class="cls-6" d="M120.29,137.71c-2.06-7.42-.58-8.05,4.8-2.94-.55.74-4.3,3.45-4.8,2.94Z"/>
      <path class="cls-6" d="M131.52,77.84l-8.02,3.74c-2.02-3.93,5.61-3.16,8.02-3.74Z"/>
      <path class="cls-6" d="M65.2,125.95l4-8.01c.51.54,2.09.82,1.86,1.84-.15.65-5.16,4.92-5.86,6.17Z"/>
      <path class="cls-6" d="M91.4,56.46h-2.13s.54-8.55.54-8.55c.73-.13.81.95.92,1.47.21.95.95,6.82.67,7.08Z"/>
      <path class="cls-6" d="M52.36,78.37c1.17.18,4.02.28,4.83.79s.08,2.34-.02,2.42c-.28.21-5.55-2.24-6.41-2.67l1.6-.53Z"/>
      <path class="cls-6" d="M114.4,124.34h-.53c-.88-.95-6.43-5.9-2.93-5.9,1.64,0,2.81,4.64,3.47,5.9Z"/>
      <path class="cls-2" d="M44.87,80.51h-16.31c-.78-.17.26-.51.27-.53,5.27.33,11-.7,16.05.53Z"/>
      <path class="cls-3" d="M52.36,78.37l-1.6.53c-.73-.36-1.78-.37-1.6-1.06,1.25-.52,2.45.41,3.21.53Z"/>
      <path class="cls-3" d="M114.4,124.34c.18.34,1.49.49,1.06,1.6-.83-.14-1.13-1.1-1.6-1.6h.53Z"/>
      <path class="cls-9" d="M100.37,90.84c0,5.55-4.5,10.05-10.06,10.05s-10.06-4.5-10.06-10.05,4.5-10.05,10.06-10.05,10.06,4.5,10.06,10.05ZM98.98,90.73c0-4.77-3.87-8.64-8.65-8.64s-8.65,3.87-8.65,8.64,3.87,8.64,8.65,8.64,8.65-3.87,8.65-8.64Z"/>
      <path class="cls-5" d="M98.98,90.73c0,4.77-3.87,8.64-8.65,8.64s-8.65-3.87-8.65-8.64,3.87-8.64,8.65-8.64,8.65,3.87,8.65,8.64ZM97.19,90.81c0-3.82-3.1-6.92-6.92-6.92s-6.92,3.1-6.92,6.92,3.1,6.92,6.92,6.92,6.92-3.1,6.92-6.92Z"/>
      <path class="cls-7" d="M97.19,90.81c0,3.82-3.1,6.92-6.92,6.92s-6.92-3.1-6.92-6.92,3.1-6.92,6.92-6.92,6.92,3.1,6.92,6.92ZM95.79,90.85c0-3.05-2.47-5.51-5.52-5.51s-5.52,2.47-5.52,5.51,2.47,5.51,5.52,5.51,5.52-2.47,5.52-5.51Z"/>
      <circle class="cls-1" cx="90.27" cy="90.85" r="5.52"/>
    </g>
  </g>
</svg>