<?xml version="1.0" encoding="UTF-8"?>
<svg id="Layer_2" data-name="Layer 2" xmlns="http://www.w3.org/2000/svg" viewBox="0 0 170.48 170.39">
  <defs>
    <style>
      .cls-1 {
        fill: #898988;
      }

      .cls-2 {
        fill: #1f201f;
      }

      .cls-3 {
        fill: #959797;
      }

      .cls-4 {
        fill: #131212;
      }

      .cls-5 {
        fill: #a3a4a4;
      }

      .cls-6 {
        fill: #e6e7e7;
      }

      .cls-7 {
        fill: #474747;
      }

      .cls-8 {
        fill: #2f3030;
      }

      .cls-9 {
        fill: #181616;
      }

      .cls-10 {
        fill: #272828;
      }

      .cls-11 {
        fill: #7c7d7c;
      }
    </style>
  </defs>
  <g id="Layer_1-2" data-name="Layer 1">
    <g>
      <path class="cls-4" d="M170.48,85.19c0,47.05-38.16,85.19-85.24,85.19S0,132.24,0,85.19,38.16,0,85.24,0s85.24,38.14,85.24,85.19ZM168.09,85.25c0-45.73-37.09-82.8-82.85-82.8S2.38,39.52,2.38,85.25s37.09,82.8,82.85,82.8,82.85-37.07,82.85-82.8Z"/>
      <path class="cls-2" d="M168.09,85.25c0,45.73-37.09,82.8-82.85,82.8S2.38,130.98,2.38,85.25,39.48,2.45,85.24,2.45s82.85,37.07,82.85,82.8ZM162.22,85.23c0-42.5-34.47-76.94-76.99-76.94S8.24,42.73,8.24,85.23s34.47,76.94,76.99,76.94,76.99-34.45,76.99-76.94Z"/>
      <path class="cls-8" d="M162.22,85.23c0,42.5-34.47,76.94-76.99,76.94S8.24,127.73,8.24,85.23,42.71,8.28,85.23,8.28s76.99,34.45,76.99,76.94ZM152.25,85.28c0-36.98-30-66.96-67-66.96S18.26,48.3,18.26,85.28s30,66.96,67,66.96,67-29.98,67-66.96Z"/>
      <path class="cls-4" d="M152.25,85.28c0,36.98-30,66.96-67,66.96S18.26,122.26,18.26,85.28,48.26,18.32,85.26,18.32s67,29.98,67,66.96ZM150.35,85.29c0-35.94-29.15-65.07-65.11-65.07S20.13,49.35,20.13,85.29s29.15,65.07,65.11,65.07,65.11-29.14,65.11-65.07Z"/>
      <path class="cls-5" d="M150.35,85.29c0,35.94-29.15,65.07-65.11,65.07S20.13,121.23,20.13,85.29,49.28,20.21,85.24,20.21s65.11,29.14,65.11,65.07ZM145.95,85.28c0-33.51-27.18-60.68-60.71-60.68s-60.71,27.17-60.71,60.68,27.18,60.68,60.71,60.68,60.71-27.17,60.71-60.68Z"/>
      <path class="cls-4" d="M145.95,85.28c0,33.51-27.18,60.68-60.71,60.68s-60.71-27.17-60.71-60.68,27.18-60.68,60.71-60.68,60.71,27.17,60.71,60.68ZM78.67,26.59c-.45-.3-1.6-.38-1.46.7.65,5.07,4.87,11.23,4.57,16.69l-3.56,29,1.94-1.34,3.13-26.15c.93-2.22-3.8-18.36-4.61-18.9ZM89.83,26.55h-9.09c.07,1.07.03,2.47,1.26,2.57.88.08,7.38-.72,7.6-1.03.36-.5.21-1,.22-1.54ZM93.36,27.07c-.05-.06-1.44-.57-1.51-.52-.66.51-4.43,13.95-5.08,15.92l3.65,29.15,1.68,1.35c.29-1.82-.11-3.9-.33-5.73-.84-6.98-3.51-18.88-2.98-25.33.22-2.74,5.07-14.26,4.56-14.85ZM45.57,44.39c5.22-4.94,14.31-10.69,21.13-12.94,2.58-.85,5.81-1.08,8.2-1.89.67-.22,1.37-.27,1.28-1.23-.4-1.97-8.45.77-9.86,1.24-12.18,4-25.97,14.59-32.14,25.92-.7,1.28-2.76,5.68.6,3.63.36-.22,3.42-6.03,4.33-7.28,1.55-2.13,4.56-5.65,6.45-7.44ZM94.38,29.58c15.57,1.67,28.83,11.14,37.78,23.56.8,1.12,3.81,6.6,4.39,6.72,2.11.44.58-2.86.16-3.69-5.99-11.83-20.41-22.6-32.84-26.73-2.36-.79-9.83-3.75-9.48.14ZM76.7,31.09c-12.28,2.05-24.61,8.49-32.8,17.93-1.4,1.62-8.42,11.21-7.52,12.77.26.45,7.77,5.41,8.65,5.74,3.42,1.29,8.1,1.28,11.67,2.45,3.43-5.96,8.79-10.95,15.11-13.76,1.37-.61,5.79-1.63,6.41-2.17,1.03-.89,1.71-10.87,1.51-12.63-.37-3.37-2.71-6.89-3.04-10.34ZM93.9,31.11c-.53,3.39-3.43,8.13-3.59,11.35-.08,1.55.79,8.3,1.14,9.97.52,2.42,5.08,2.81,7.31,3.8,6.45,2.87,11.37,7.79,15.13,13.66,3.75-1.23,8.81-1.11,12.3-2.71.99-.46,7.53-5.17,7.85-5.82.6-1.23-4.05-8.11-5.12-9.54-8.29-11.02-21.48-18.42-35.02-20.71ZM87.81,31.6h-5.05c.62,8.53,4.2,8.33,5.05,0ZM86.29,53.3c.26-.25-.44-5.79-.64-6.68-.11-.49-.18-1.51-.87-1.39l-.51,8.07h2.01ZM86.79,55.32c-.1-.11-2.81-.09-2.97.05-.44.37-.98,7.27-1.06,8.52,1.83-.23,3.22-.54,5.04,0-.39-1.22-.71-8.26-1.01-8.57ZM58.52,70.45c2.24-.06,6.78,1.99,8.72,1.44.51-.15,4.07-3.59,5.25-4.37,1.08-.72,4.16-1.73,4.71-2.35.42-.48,1.29-8.94,1-9.34-8.15,2.54-15.39,7.08-19.69,14.63ZM111.54,70.45c-3.52-7.28-11.28-12.77-19.18-14.13-.33.33.32,8.15,1,8.84.85.86,5.33,2.71,7.04,4.07.93.73,1.8,2.46,2.4,2.67,1.84.63,6.61-1.27,8.75-1.45ZM74.68,75.51l-30.29-6.33-13.13-8.82.32,2.06c4.54,2.3,8.18,6.94,13.03,8.56,8.53,2.85,19.22,3.2,27.95,5.93.75.45,2.34-1.12,2.12-1.41ZM139.3,62.36c.33-.47-.28-2.01-.74-1.99-.78.03-9.79,7.9-12.76,8.93-7.95,2.76-19.22,3.39-27.73,5.6-2.6.68-3.02,1.21-.06,2.02,8.67-2.7,19.07-3.04,27.56-5.82,4.36-1.43,8.4-5.41,12.06-8.15.49-.36,1.62-.52,1.67-.59ZM27.72,72.47c.2.19,1.85.09,2.28-.49.2-.27,2.14-6.11,2.19-6.44.21-1.47-.71-1.41-1.7-2.14-.58,1.23-3.43,8.44-2.77,9.08ZM140.32,63.39c-.39-.36-1.55.54-1.77,1.02-.51,1.09,1.52,9.44,4.3,8.06-.58-1.32-1.99-8.58-2.53-9.08ZM87.74,65.98c-.39-.24-4.54-.18-5.01.15-.83.58-.3,4.14-.98,5.33,2.39-.71,4.67-.73,7.06,0-.23-.95-.61-5.19-1.08-5.48ZM39.27,71.92c2.04-1.29-3.52-4.07-4.23-4.99l-1.76,5.03c1.23-.26,5.3.4,6-.05ZM137.29,71.97l-1.76-5.03c-1.22,1.4-4.46,2.36-4.81,4.27-.18,1.02.12.67.76.76,1.77.25,3.98-.18,5.81,0ZM76.19,73.99l.5-6.56c-.25-.34-6.15,3.83-6.56,4.8s.62.72,1.11.88c1.58.52,3.25.95,4.94.88ZM100.94,72.98c1.13-.98-6.99-6.18-7.57-5.55l1.01,6.56,6.56-1.01ZM98.2,85.83c0-7.17-5.82-12.99-12.99-12.99s-12.99,5.81-12.99,12.99,5.82,12.99,12.99,12.99,12.99-5.81,12.99-12.99ZM49.43,73.99c-.72-.11-1.85-.99-3.03-.5-.17.65.82.66,1.51,1,.82.41,5.79,2.72,6.06,2.52.09-.07.78-1.81.02-2.28s-3.45-.57-4.56-.75ZM124.16,73.49c-2.27.54-9.47-.18-7.57,3.53l7.57-3.53ZM27.21,75.5s-.99.34-.25.51h15.4c3.97.97,9.12,3.74,12.98,5.45,5.06,2.25,10.12,4.64,15.05,7.16.64-.68.25-2.1-.56-2.47l-26.94-11.94-15.4-.26c-.58.15-.19,1.08-.28,1.54ZM143.35,73.99h-15.91l-27.71,12.57-.31,2.06,28.53-13.12h15.4v-1.51ZM63.57,81.06c-.33-1.12,1.68-3.58.52-4.3-.62-.38-7.47-1.53-8.02-1.18-.23.15-.76,2.1-.55,2.41.25.35,7.71,3.37,8.04,3.07ZM114.52,75.56c-.89-.78-6.93,1.48-8.53.95l1.02,5.04c1.06-.94,7.68-3.04,8.07-3.56.07-.1-.46-2.35-.55-2.43ZM30.77,77.55c-2.18,13.62,1.59,28.38,9.65,39.5,1.01,1.4,4.44,5.68,5.7,6.43.77.45.88.58,1.8.27.6-.2,6.66-4.76,7.26-5.41.85-.93,5.86-9.51,5.83-10.3s-4.37-6.18-5.21-7.88c-2.81-5.64-3.67-11.51-3.41-17.78-.27-.78-10.45-5.06-11.94-5.24-3.01-.37-6.52.87-9.69.4ZM139.82,77.53c-3.17.52-6.69-.75-9.71-.38-1.57.19-11.86,4.59-12.02,5.26.89,9.67-2.61,18.24-8.56,25.64-.02.83,4.24,8.61,5.04,9.6,2.08,2.59,6.35,4.42,8.84,6.72,12.58-11.83,19.04-29.64,16.4-46.84ZM28.72,77.52c-2.47-.76-2.41,1.64-2.54,3.76-.95,14.72,4.57,31.66,14.41,42.67,1.37,1.54,3.08,4.12,4.79,1.76-12.69-12.31-19.33-30.54-16.66-48.19ZM72.16,78.54c-3.08-.34-5.59-2.76-6.44,1.38-.78,3.83,1.77,2.84,4.41,4.67l2.03-6.05ZM105.48,82.56c-.65-5.08-1.54-5.76-6.55-4.52l1,6.55,5.55-2.03ZM143.8,77.59c-.32-.26-1.41.03-1.96-.06,1.97,13.58-1.7,28.89-9.68,40.04-1.06,1.48-6.87,7.16-6.98,7.66-.29,1.32,1.64,1.56,2.81.78.79-.52,4.37-5.3,5.17-6.44,7.8-11,12.15-25.21,11.22-38.79-.04-.56-.4-3.05-.59-3.2ZM54.48,83.07v7.82c0,1.41,2.51,7.71,3.34,9.28.44.83,3.52,5.5,3.99,5.6.76.17,4.8-6.51,4.77-7.32-.02-.59-1.96-3.47-2.39-4.65-.67-1.81-1.11-6.14-1.9-7.18s-6.34-2.64-7.81-3.55ZM116.09,83.07c-1.42.86-7.02,2.61-7.81,3.54-.58.67-1.26,5.48-1.9,7.18-.44,1.16-2.36,4.09-2.38,4.66-.02.61,3.83,7.81,4.27,7.82,1.77-1.76,3.33-3.9,4.48-6.11.84-1.61,3.35-7.82,3.35-9.27v-7.82ZM71.14,90.65l-6.56-3.03c-.24,3.11,1.65,5.74,2.53,8.58,1.16.29.83-.23,1.15-.63,1.15-1.46,1.67-3.46,2.88-4.91ZM99.42,90.65c3.67,9.59,5.57,3.16,6.56-3.04l-6.56,3.04ZM72.65,92.66c-1.37-.3-.86.42-1.24,1-5.02,7.55-9.01,18.36-14.19,25.21-2.72,3.59-9.14,5.81-11.85,8.86-.77.87.68,1.75.77,1.75.81,0,11.58-8.86,12.58-10.11,5.35-6.71,8.79-17.27,14.07-24.34l-.15-2.36ZM98.91,92.66c-.93-.87-1.86,1.81-1.26,2.48,4.94,7.06,8.29,16.21,13.27,23.12,3.65,5.06,8.93,7.14,13.5,11.22.3-.41,1.43-.95,1.02-1.5-1.42-1.9-8.27-5.4-10.6-7.58-4.39-4.09-11.03-18.36-14.49-24.38-.43-.74-1.3-3.24-1.44-3.36ZM91.34,99.23c-.46.62,3.44,4.39,3.78,4.41.36.03,3.66-2.37,3.77-2.73.23-.76-2.31-4.72-2.75-4.72-1.33,1.29-2.93,2.67-4.8,3.03ZM79.22,99.23c-2.63-.06-3.53-4.23-6-1.71-1.98,2.01-1.85,3.44.48,4.95,2.59,1.68,3.72-1.49,5.52-3.24ZM58.01,137.58c.6-.45,3.25-11.84,4.64-14.3,1.23-2.17,4.43-5.36,6.22-7.41,4.36-5,9.22-9.67,13.65-14.62.25-3.73-4.03,1.42-5.07,2.51-4.16,4.39-15.14,15.84-17.15,20.71-1.55,3.75-2.27,8.48-3.81,12.31,0,.25,1.45.86,1.52.8ZM114.07,137.07c.55-.62-4.45-13.81-5.34-15.61l-19.15-21.28c-.72-.76-1.4,0-2.28.05l20.43,22.73,4.56,14.12c.18.63,1.71.06,1.77,0ZM89.83,105.78l-4.36-4.5-4.73,4.26c2.96,1.18,6.04.75,9.09.24ZM70.14,102.25c-.04,2.29-4.51,6.19-3.31,8.08,1.92,3.01,5.68-4.42,7.33-5.31l-4.02-2.77ZM100.43,102.76c-.39-.28-2.84,1.49-3.4,1.89-.27.19-.97.01-.62.87.14.34,4.19,4.58,4.99,5.5.71.81,1.97.03,2.34-.7.85-1.65-3.31-5.41-3.31-7.56ZM96.9,114.36c.68-.93-5.22-6.96-6.27-7.02-.72-.04-1.92.49-3.04.49-1.67,0-7.82-.7-8.52-.46-.39.13-4.8,5.29-5.39,6.23,6.92,4.05,15.87,3.23,23.23.76ZM61.56,118.91c.66-1.19,5.4-5.21,5.54-5.83.22-.96-1.28-1.23-1.76-1.74l-3.78,7.57ZM107.5,117.39c.44.47.72,1.38,1.51,1.51.4-1.05-.83-1.19-1-1.51-.63-1.19-1.73-5.57-3.27-5.57-3.3,0,1.94,4.67,2.77,5.57ZM109.49,134.5c.31-.43-2.55-9.34-3.07-10.23-1.71-2.93-5.77-5.96-7.82-8.84-8.5,3.81-18.01,3.32-26.59,0-5.74,5.34-10.09,11.07-10.9,19.05,15.25,7.53,33.13,7.63,48.38.01ZM56.49,130.51c2.86-7.35,1.26-8.32-4.53-3.28l4.53,3.28ZM113.56,130.01c.47.48,4.01-2.08,4.53-2.78-5.08-4.82-6.47-4.23-4.53,2.78ZM55.49,135.56c1.55-1.95-5.06-6.36-5.9-6.49-1.11-.17-2.1,1.15-.94,2.48.64.74,6.28,4.6,6.84,4.01ZM115.08,135.56c.46.48,5.86-3.21,6.52-3.82.43-.4,1.2-.73,1.05-1.47-.52-2.53-9.3,2.62-7.57,5.29ZM110.45,138.5c.21-.34.29-2.1-.16-2.44-11.35,6.04-25.04,7.46-37.54,4.71-4.38-.96-8.43-2.97-12.7-4.21-.5,2.19.9,2.44,2.63,3.17,12.3,5.21,26.41,5.7,39.16,2.01,1.13-.33,8.38-2.85,8.62-3.25Z"/>
      <path class="cls-10" d="M98.2,85.83c0,7.17-5.82,12.99-12.99,12.99s-12.99-5.81-12.99-12.99,5.82-12.99,12.99-12.99,12.99,5.81,12.99,12.99ZM94.76,85.76c0-5.24-4.25-9.49-9.5-9.49s-9.5,4.25-9.5,9.49,4.25,9.49,9.5,9.49,9.5-4.25,9.5-9.49Z"/>
      <path class="cls-11" d="M116.09,83.07v7.82c0,1.45-2.51,7.66-3.35,9.27-1.15,2.21-2.71,4.35-4.48,6.11-.45,0-4.29-7.21-4.27-7.82.02-.57,1.94-3.5,2.38-4.66.65-1.7,1.33-6.51,1.9-7.18.8-.93,6.39-2.68,7.81-3.54Z"/>
      <path class="cls-11" d="M54.48,83.07c1.47.92,7,2.49,7.81,3.55s1.23,5.37,1.9,7.18c.44,1.18,2.37,4.06,2.39,4.65.03.81-4.01,7.48-4.77,7.32-.47-.1-3.56-4.78-3.99-5.6-.83-1.57-3.34-7.87-3.34-9.28v-7.82Z"/>
      <path class="cls-11" d="M58.52,70.45c4.3-7.55,11.54-12.09,19.69-14.63.29.4-.57,8.87-1,9.34-.55.62-3.63,1.64-4.71,2.35-1.18.78-4.74,4.23-5.25,4.37-1.95.55-6.48-1.49-8.72-1.44Z"/>
      <path class="cls-11" d="M111.54,70.45c-2.14.17-6.91,2.08-8.75,1.45-.6-.21-1.47-1.93-2.4-2.67-1.71-1.36-6.19-3.21-7.04-4.07-.68-.69-1.33-8.51-1-8.84,7.9,1.35,15.66,6.84,19.18,14.13Z"/>
      <path class="cls-11" d="M96.9,114.36c-7.36,2.47-16.31,3.29-23.23-.76.59-.94,5-6.09,5.39-6.23.7-.24,6.85.47,8.52.46,1.13,0,2.33-.53,3.04-.49,1.05.05,6.96,6.09,6.27,7.02Z"/>
      <path class="cls-10" d="M45.57,44.39c-1.89,1.79-4.89,5.31-6.45,7.44-.91,1.25-3.97,7.06-4.33,7.28-3.37,2.05-1.3-2.35-.6-3.63,6.17-11.33,19.96-21.91,32.14-25.92,1.41-.46,9.46-3.21,9.86-1.24.09.96-.62,1-1.28,1.23-2.4.81-5.63,1.04-8.2,1.89-6.83,2.25-15.92,8-21.13,12.94Z"/>
      <path class="cls-10" d="M94.38,29.58c-.35-3.9,7.12-.93,9.48-.14,12.44,4.13,26.85,14.9,32.84,26.73.42.83,1.95,4.14-.16,3.69-.58-.12-3.59-5.6-4.39-6.72-8.94-12.43-22.2-21.9-37.78-23.56Z"/>
      <path class="cls-10" d="M143.8,77.59c.18.15.55,2.63.59,3.2.92,13.57-3.42,27.78-11.22,38.79-.8,1.13-4.39,5.91-5.17,6.44-1.18.78-3.1.53-2.81-.78.11-.51,5.92-6.19,6.98-7.66,7.98-11.15,11.65-26.46,9.68-40.04.55.09,1.64-.19,1.96.06Z"/>
      <path class="cls-10" d="M28.72,77.52c-2.68,17.65,3.97,35.88,16.66,48.19-1.72,2.36-3.42-.22-4.79-1.76-9.84-11.01-15.36-27.95-14.41-42.67.14-2.12.07-4.52,2.54-3.76Z"/>
      <path class="cls-10" d="M110.45,138.5c-.24.39-7.49,2.92-8.62,3.25-12.75,3.69-26.86,3.21-39.16-2.01-1.73-.73-3.13-.98-2.63-3.17,4.27,1.24,8.32,3.24,12.7,4.21,12.51,2.75,26.19,1.33,37.54-4.71.46.33.37,2.09.16,2.44Z"/>
      <path class="cls-3" d="M93.36,27.07c.51.59-4.34,12.11-4.56,14.85-.53,6.45,2.14,18.34,2.98,25.33.22,1.83.62,3.91.33,5.73l-1.68-1.35-3.65-29.15c.64-1.98,4.42-15.41,5.08-15.92.06-.05,1.45.46,1.51.52Z"/>
      <path class="cls-3" d="M78.67,26.59c.81.55,5.55,16.69,4.61,18.9l-3.13,26.15-1.94,1.34,3.56-29c.31-5.46-3.92-11.62-4.57-16.69-.14-1.08,1-1,1.46-.7Z"/>
      <path class="cls-3" d="M139.3,62.36c-.05.07-1.18.23-1.67.59-3.66,2.73-7.7,6.72-12.06,8.15-8.49,2.78-18.89,3.12-27.56,5.82-2.97-.81-2.55-1.34.06-2.02,8.51-2.21,19.78-2.84,27.73-5.6,2.98-1.03,11.98-8.91,12.76-8.93.46-.02,1.07,1.52.74,1.99Z"/>
      <path class="cls-3" d="M98.91,92.66c.13.13,1.01,2.62,1.44,3.36,3.46,6.01,10.1,20.29,14.49,24.38,2.34,2.18,9.19,5.68,10.6,7.58.41.55-.72,1.09-1.02,1.5-4.56-4.08-9.85-6.16-13.5-11.22-4.98-6.9-8.33-16.05-13.27-23.12-.6-.67.33-3.35,1.26-2.48Z"/>
      <path class="cls-3" d="M114.07,137.07c-.06.07-1.59.64-1.77,0l-4.56-14.12-20.43-22.73c.88-.05,1.56-.81,2.28-.05l19.15,21.28c.89,1.8,5.88,14.99,5.34,15.61Z"/>
      <path class="cls-3" d="M72.65,92.66l.15,2.36c-5.28,7.07-8.72,17.63-14.07,24.34-1,1.25-11.77,10.1-12.58,10.11-.1,0-1.54-.88-.77-1.75,2.71-3.05,9.13-5.26,11.85-8.86,5.18-6.84,9.16-17.66,14.19-25.21.39-.58-.13-1.3,1.24-1Z"/>
      <path class="cls-3" d="M74.68,75.51c.22.3-1.37,1.86-2.12,1.41-8.73-2.74-19.42-3.09-27.95-5.93-4.85-1.62-8.49-6.26-13.03-8.56l-.32-2.06,13.13,8.82,30.29,6.33Z"/>
      <path class="cls-3" d="M27.21,75.5c.08-.46-.3-1.39.28-1.54l15.4.26,26.94,11.94c.81.36,1.2,1.79.56,2.47-4.94-2.52-9.99-4.91-15.05-7.16-3.85-1.71-9-4.48-12.98-5.45-4.76-1.16-10.17-.19-15.15-.5Z"/>
      <path class="cls-3" d="M58.01,137.58c-.07.05-1.53-.56-1.52-.8,1.54-3.83,2.26-8.55,3.81-12.31,2.01-4.87,12.99-16.32,17.15-20.71,1.03-1.09,5.32-6.24,5.07-2.51-4.43,4.96-9.29,9.62-13.65,14.62-1.79,2.05-4.99,5.25-6.22,7.41-1.39,2.46-4.04,13.85-4.64,14.3Z"/>
      <polygon class="cls-3" points="143.35 73.99 143.35 75.5 127.95 75.5 99.43 88.62 99.74 86.56 127.45 73.99 143.35 73.99"/>
      <path class="cls-11" d="M86.79,55.32c.3.31.63,7.35,1.01,8.57-1.83-.54-3.22-.23-5.04,0,.08-1.26.62-8.15,1.06-8.52.16-.14,2.87-.16,2.97-.05Z"/>
      <path class="cls-10" d="M105.48,82.56l-5.55,2.03-1-6.55c5.01-1.23,5.9-.56,6.55,4.52Z"/>
      <path class="cls-11" d="M114.52,75.56c.09.08.63,2.33.55,2.43-.38.53-7.01,2.62-8.07,3.56l-1.02-5.04c1.6.53,7.64-1.73,8.53-.95Z"/>
      <path class="cls-11" d="M63.57,81.06c-.33.3-7.79-2.72-8.04-3.07-.22-.31.31-2.26.55-2.41.54-.35,7.4.8,8.02,1.18,1.16.72-.85,3.18-.52,4.3Z"/>
      <path class="cls-10" d="M87.74,65.98c.46.29.85,4.53,1.08,5.48-2.4-.73-4.67-.71-7.06,0,.68-1.19.15-4.75.98-5.33.47-.33,4.62-.4,5.01-.15Z"/>
      <path class="cls-11" d="M70.14,102.25l4.02,2.77c-1.65.89-5.41,8.32-7.33,5.31-1.2-1.89,3.27-5.79,3.31-8.08Z"/>
      <path class="cls-10" d="M91.34,99.23c1.86-.35,3.46-1.73,4.8-3.03.44,0,2.98,3.96,2.75,4.72-.11.36-3.4,2.75-3.77,2.73-.34-.03-4.24-3.8-3.78-4.41Z"/>
      <path class="cls-10" d="M72.16,78.54l-2.03,6.05c-2.64-1.83-5.2-.84-4.41-4.67.85-4.14,3.36-1.72,6.44-1.38Z"/>
      <path class="cls-11" d="M100.43,102.76c0,2.15,4.16,5.91,3.31,7.56-.37.72-1.63,1.51-2.34.7-.81-.92-4.85-5.16-4.99-5.5-.35-.86.35-.68.62-.87.56-.39,3.01-2.17,3.4-1.89Z"/>
      <path class="cls-10" d="M79.22,99.23c-1.8,1.75-2.93,4.92-5.52,3.24-2.33-1.51-2.46-2.94-.48-4.95,2.47-2.52,3.37,1.65,6,1.71Z"/>
      <path class="cls-10" d="M99.42,90.65l6.56-3.04c-.99,6.2-2.89,12.63-6.56,3.04Z"/>
      <path class="cls-10" d="M71.14,90.65c-1.21,1.45-1.74,3.45-2.88,4.91-.32.41.01.93-1.15.63-.88-2.84-2.76-5.47-2.53-8.58l6.56,3.03Z"/>
      <path class="cls-10" d="M100.94,72.98l-6.56,1.01-1.01-6.56c.58-.64,8.7,4.56,7.57,5.55Z"/>
      <path class="cls-10" d="M76.19,73.99c-1.69.07-3.36-.36-4.94-.88-.5-.16-1.52.09-1.11-.88s6.3-5.15,6.56-4.8l-.5,6.56Z"/>
      <path class="cls-10" d="M89.83,105.78c-3.04.5-6.13.93-9.09-.24l4.73-4.26,4.36,4.5Z"/>
      <path class="cls-6" d="M87.81,31.6c-.85,8.33-4.44,8.53-5.05,0h5.05Z"/>
      <path class="cls-10" d="M55.49,135.56c-.56.59-6.2-3.27-6.84-4.01-1.16-1.33-.17-2.65.94-2.48.83.13,7.44,4.54,5.9,6.49Z"/>
      <path class="cls-6" d="M56.49,130.51l-4.53-3.28c5.79-5.04,7.38-4.07,4.53,3.28Z"/>
      <path class="cls-6" d="M137.29,71.97c-1.83-.18-4.05.26-5.81,0-.63-.09-.94.26-.76-.76.34-1.92,3.59-2.88,4.81-4.27l1.76,5.03Z"/>
      <path class="cls-10" d="M140.32,63.39c.54.5,1.95,7.76,2.53,9.08-2.78,1.38-4.81-6.97-4.3-8.06.23-.48,1.38-1.38,1.77-1.02Z"/>
      <path class="cls-10" d="M115.08,135.56c-1.73-2.67,7.05-7.82,7.57-5.29.15.74-.62,1.07-1.05,1.47-.67.62-6.06,4.31-6.52,3.82Z"/>
      <path class="cls-10" d="M27.72,72.47c-.66-.64,2.19-7.85,2.77-9.08.99.73,1.91.67,1.7,2.14-.05.34-1.98,6.17-2.19,6.44-.43.58-2.08.68-2.28.49Z"/>
      <path class="cls-6" d="M39.27,71.92c-.7.44-4.77-.21-6,.05l1.76-5.03c.72.92,6.28,3.7,4.23,4.99Z"/>
      <path class="cls-10" d="M89.83,26.55c-.01.54.14,1.05-.22,1.54-.23.31-6.72,1.11-7.6,1.03-1.23-.11-1.19-1.51-1.26-2.57h9.09Z"/>
      <path class="cls-6" d="M113.56,130.01c-1.94-7.01-.55-7.6,4.53-2.78-.52.7-4.06,3.25-4.53,2.78Z"/>
      <path class="cls-6" d="M124.16,73.49l-7.57,3.53c-1.91-3.71,5.3-2.99,7.57-3.53Z"/>
      <path class="cls-6" d="M61.56,118.91l3.78-7.57c.48.51,1.98.78,1.76,1.74-.14.61-4.87,4.64-5.54,5.83Z"/>
      <path class="cls-6" d="M86.29,53.3h-2.01s.51-8.07.51-8.07c.69-.12.76.9.87,1.39.2.9.9,6.43.64,6.68Z"/>
      <path class="cls-6" d="M49.43,73.99c1.1.17,3.79.27,4.56.75s.07,2.21-.02,2.28c-.26.2-5.24-2.12-6.06-2.52l1.51-.5Z"/>
      <path class="cls-6" d="M108.01,117.39h-.5c-.83-.9-6.07-5.57-2.77-5.57,1.54,0,2.65,4.38,3.27,5.57Z"/>
      <path class="cls-2" d="M42.36,76.01h-15.4c-.74-.16.25-.48.25-.5,4.98.32,10.39-.66,15.15.5Z"/>
      <path class="cls-3" d="M49.43,73.99l-1.51.5c-.69-.34-1.68-.35-1.51-1,1.18-.49,2.31.39,3.03.5Z"/>
      <path class="cls-3" d="M108.01,117.39c.17.32,1.4.46,1,1.51-.79-.13-1.07-1.04-1.51-1.51h.5Z"/>
      <path class="cls-9" d="M94.76,85.76c0,5.24-4.25,9.49-9.5,9.49s-9.5-4.25-9.5-9.49,4.25-9.49,9.5-9.49,9.5,4.25,9.5,9.49ZM93.44,85.66c0-4.51-3.65-8.16-8.16-8.16s-8.16,3.65-8.16,8.16,3.65,8.16,8.16,8.16,8.16-3.65,8.16-8.16Z"/>
      <path class="cls-5" d="M93.44,85.66c0,4.51-3.65,8.16-8.16,8.16s-8.16-3.65-8.16-8.16,3.65-8.16,8.16-8.16,8.16,3.65,8.16,8.16ZM91.75,85.74c0-3.61-2.93-6.53-6.54-6.53s-6.54,2.92-6.54,6.53,2.93,6.53,6.54,6.53,6.54-2.92,6.54-6.53Z"/>
      <path class="cls-7" d="M91.75,85.74c0,3.61-2.93,6.53-6.54,6.53s-6.54-2.92-6.54-6.53,2.93-6.53,6.54-6.53,6.54,2.92,6.54,6.53ZM90.43,85.77c0-2.88-2.33-5.21-5.21-5.21s-5.21,2.33-5.21,5.21,2.33,5.21,5.21,5.21,5.21-2.33,5.21-5.21Z"/>
      <circle class="cls-1" cx="85.22" cy="85.77" r="5.21"/>
    </g>
  </g>
</svg>